<svg xmlns="http://www.w3.org/2000/svg" xmlns:xlink="http://www.w3.org/1999/xlink" width="1080" zoomAndPan="magnify" viewBox="0 0 810 809.999993" height="1080" preserveAspectRatio="xMidYMid meet" version="1.0"><path fill="#ffffff" d="M 404.226562 243.792969 C 313.640625 243.792969 239.945312 317.488281 239.945312 408.074219 C 239.945312 498.667969 313.640625 572.363281 404.226562 572.363281 C 494.8125 572.363281 568.511719 498.667969 568.511719 408.074219 C 568.511719 317.488281 494.8125 243.792969 404.226562 243.792969 Z M 404.226562 580.363281 C 380.972656 580.363281 358.410156 575.804688 337.164062 566.820312 C 316.652344 558.140625 298.222656 545.71875 282.40625 529.902344 C 266.582031 514.078125 254.160156 495.65625 245.484375 475.144531 C 236.496094 453.898438 231.945312 431.335938 231.945312 408.074219 C 231.945312 384.820312 236.496094 362.257812 245.484375 341.019531 C 254.160156 320.5 266.582031 302.078125 282.40625 286.261719 C 298.222656 270.4375 316.652344 258.007812 337.164062 249.335938 C 358.410156 240.351562 380.972656 235.792969 404.226562 235.792969 C 427.484375 235.792969 450.046875 240.351562 471.289062 249.335938 C 491.804688 258.007812 510.230469 270.4375 526.050781 286.261719 C 541.871094 302.078125 554.292969 320.5 562.964844 341.019531 C 571.953125 362.257812 576.511719 384.820312 576.511719 408.074219 C 576.511719 431.335938 571.953125 453.898438 562.964844 475.144531 C 554.292969 495.65625 541.871094 514.078125 526.050781 529.902344 C 510.230469 545.71875 491.804688 558.140625 471.289062 566.820312 C 450.046875 575.804688 427.484375 580.363281 404.226562 580.363281 " fill-opacity="1" fill-rule="nonzero"/><path fill="#ffffff" d="M 404.226562 175.097656 C 275.757812 175.097656 171.25 279.613281 171.25 408.074219 C 171.25 536.542969 275.757812 641.058594 404.226562 641.058594 C 532.691406 641.058594 637.207031 536.542969 637.207031 408.074219 C 637.207031 279.613281 532.691406 175.097656 404.226562 175.097656 Z M 404.226562 652.402344 C 371.25 652.402344 339.25 645.9375 309.125 633.195312 C 280.03125 620.894531 253.902344 603.273438 231.46875 580.839844 C 209.027344 558.402344 191.410156 532.273438 179.105469 503.179688 C 166.363281 473.054688 159.90625 441.058594 159.90625 408.074219 C 159.90625 375.09375 166.363281 343.101562 179.105469 312.976562 C 191.410156 283.882812 209.027344 257.753906 231.46875 235.316406 C 253.902344 212.875 280.03125 195.261719 309.125 182.960938 C 339.25 170.21875 371.25 163.753906 404.226562 163.753906 C 437.207031 163.753906 469.207031 170.21875 499.332031 182.960938 C 528.425781 195.261719 554.554688 212.875 576.988281 235.316406 C 599.425781 257.753906 617.039062 283.882812 629.351562 312.976562 C 642.089844 343.101562 648.550781 375.09375 648.550781 408.074219 C 648.550781 441.058594 642.089844 473.054688 629.351562 503.179688 C 617.039062 532.273438 599.425781 558.402344 576.988281 580.839844 C 554.554688 603.273438 528.425781 620.894531 499.332031 633.195312 C 469.207031 645.9375 437.207031 652.402344 404.226562 652.402344 " fill-opacity="1" fill-rule="nonzero"/><path fill="#ffffff" d="M 124.890625 358.835938 C 144.46875 239.789062 238.351562 145.449219 357.164062 125.171875 L 365.808594 77.757812 C 335.160156 81.382812 305.34375 89.277344 276.769531 101.367188 C 237.507812 117.96875 202.261719 141.730469 171.996094 171.996094 C 141.730469 202.261719 117.96875 237.515625 101.367188 276.769531 C 89.015625 305.957031 81.042969 336.441406 77.53125 367.78125 L 124.890625 358.835938 " fill-opacity="1" fill-rule="nonzero"/><path fill="#ffffff" d="M 451.332031 124.890625 C 570.378906 144.46875 664.71875 238.351562 684.996094 357.164062 L 732.410156 365.808594 C 728.785156 335.160156 720.890625 305.34375 708.800781 276.769531 C 692.199219 237.515625 668.433594 202.261719 638.171875 171.996094 C 607.902344 141.730469 572.652344 117.96875 533.394531 101.367188 C 504.210938 89.015625 473.726562 81.042969 442.386719 77.53125 L 451.332031 124.890625 " fill-opacity="1" fill-rule="nonzero"/><path fill="#ffffff" d="M 685.277344 451.332031 C 665.699219 570.386719 571.816406 664.71875 453.003906 684.996094 L 444.359375 732.410156 C 475.007812 728.785156 504.824219 720.890625 533.394531 708.800781 C 572.652344 692.199219 607.902344 668.433594 638.171875 638.171875 C 668.433594 607.902344 692.199219 572.65625 708.800781 533.402344 C 721.148438 504.210938 729.125 473.726562 732.636719 442.386719 L 685.277344 451.332031 " fill-opacity="1" fill-rule="nonzero"/><path fill="#ffffff" d="M 358.835938 685.277344 C 239.789062 665.699219 145.449219 571.816406 125.171875 453.003906 L 77.757812 444.359375 C 81.382812 475.007812 89.277344 504.824219 101.367188 533.402344 C 117.96875 572.65625 141.730469 607.902344 171.996094 638.171875 C 202.261719 668.433594 237.507812 692.199219 276.769531 708.800781 C 305.957031 721.148438 336.441406 729.125 367.78125 732.636719 L 358.835938 685.277344 " fill-opacity="1" fill-rule="nonzero"/><path fill="#ffffff" d="M 408.09375 810.117188 L 402.074219 810.117188 L 402.074219 0.0507812 L 408.09375 0.0507812 L 408.09375 810.117188 " fill-opacity="1" fill-rule="nonzero"/><path fill="#ffffff" d="M 0.0507812 408.09375 L 0.0507812 402.074219 L 810.117188 402.074219 L 810.117188 408.09375 L 0.0507812 408.09375 " fill-opacity="1" fill-rule="nonzero"/><path fill="#ffffff" d="M 385.640625 405.082031 C 385.640625 394.347656 394.347656 385.640625 405.082031 385.640625 C 415.820312 385.640625 424.523438 394.347656 424.523438 405.082031 C 424.523438 415.820312 415.820312 424.523438 405.082031 424.523438 C 394.347656 424.523438 385.640625 415.820312 385.640625 405.082031 " fill-opacity="1" fill-rule="nonzero"/><path fill="#ffffff" d="M 404.226562 243.792969 C 313.640625 243.792969 239.945312 317.488281 239.945312 408.074219 C 239.945312 498.667969 313.640625 572.363281 404.226562 572.363281 C 494.8125 572.363281 568.511719 498.667969 568.511719 408.074219 C 568.511719 317.488281 494.8125 243.792969 404.226562 243.792969 Z M 404.226562 580.363281 C 380.972656 580.363281 358.410156 575.804688 337.164062 566.820312 C 316.652344 558.140625 298.222656 545.71875 282.40625 529.902344 C 266.582031 514.078125 254.160156 495.65625 245.484375 475.144531 C 236.496094 453.898438 231.945312 431.335938 231.945312 408.074219 C 231.945312 384.820312 236.496094 362.257812 245.484375 341.019531 C 254.160156 320.5 266.582031 302.078125 282.40625 286.261719 C 298.222656 270.4375 316.652344 258.007812 337.164062 249.335938 C 358.410156 240.351562 380.972656 235.792969 404.226562 235.792969 C 427.484375 235.792969 450.046875 240.351562 471.289062 249.335938 C 491.804688 258.007812 510.230469 270.4375 526.050781 286.261719 C 541.871094 302.078125 554.292969 320.5 562.964844 341.019531 C 571.953125 362.257812 576.511719 384.820312 576.511719 408.074219 C 576.511719 431.335938 571.953125 453.898438 562.964844 475.144531 C 554.292969 495.65625 541.871094 514.078125 526.050781 529.902344 C 510.230469 545.71875 491.804688 558.140625 471.289062 566.820312 C 450.046875 575.804688 427.484375 580.363281 404.226562 580.363281 " fill-opacity="1" fill-rule="nonzero"/><path fill="#ffffff" d="M 404.226562 175.097656 C 275.757812 175.097656 171.25 279.613281 171.25 408.074219 C 171.25 536.542969 275.757812 641.058594 404.226562 641.058594 C 532.691406 641.058594 637.207031 536.542969 637.207031 408.074219 C 637.207031 279.613281 532.691406 175.097656 404.226562 175.097656 Z M 404.226562 652.402344 C 371.25 652.402344 339.25 645.9375 309.125 633.195312 C 280.03125 620.894531 253.902344 603.273438 231.46875 580.839844 C 209.027344 558.402344 191.410156 532.273438 179.105469 503.179688 C 166.363281 473.054688 159.90625 441.058594 159.90625 408.074219 C 159.90625 375.09375 166.363281 343.101562 179.105469 312.976562 C 191.410156 283.882812 209.027344 257.753906 231.46875 235.316406 C 253.902344 212.875 280.03125 195.261719 309.125 182.960938 C 339.25 170.21875 371.25 163.753906 404.226562 163.753906 C 437.207031 163.753906 469.207031 170.21875 499.332031 182.960938 C 528.425781 195.261719 554.554688 212.875 576.988281 235.316406 C 599.425781 257.753906 617.039062 283.882812 629.351562 312.976562 C 642.089844 343.101562 648.550781 375.09375 648.550781 408.074219 C 648.550781 441.058594 642.089844 473.054688 629.351562 503.179688 C 617.039062 532.273438 599.425781 558.402344 576.988281 580.839844 C 554.554688 603.273438 528.425781 620.894531 499.332031 633.195312 C 469.207031 645.9375 437.207031 652.402344 404.226562 652.402344 " fill-opacity="1" fill-rule="nonzero"/><path fill="#ffffff" d="M 124.890625 358.835938 C 144.46875 239.789062 238.351562 145.449219 357.164062 125.171875 L 365.808594 77.757812 C 335.160156 81.382812 305.34375 89.277344 276.769531 101.367188 C 237.507812 117.96875 202.261719 141.730469 171.996094 171.996094 C 141.730469 202.261719 117.96875 237.515625 101.367188 276.769531 C 89.015625 305.957031 81.042969 336.441406 77.53125 367.78125 L 124.890625 358.835938 " fill-opacity="1" fill-rule="nonzero"/><path fill="#ffffff" d="M 451.332031 124.890625 C 570.378906 144.46875 664.71875 238.351562 684.996094 357.164062 L 732.410156 365.808594 C 728.785156 335.160156 720.890625 305.34375 708.800781 276.769531 C 692.199219 237.515625 668.433594 202.261719 638.171875 171.996094 C 607.902344 141.730469 572.652344 117.96875 533.394531 101.367188 C 504.210938 89.015625 473.726562 81.042969 442.386719 77.53125 L 451.332031 124.890625 " fill-opacity="1" fill-rule="nonzero"/><path fill="#ffffff" d="M 685.277344 451.332031 C 665.699219 570.386719 571.816406 664.71875 453.003906 684.996094 L 444.359375 732.410156 C 475.007812 728.785156 504.824219 720.890625 533.394531 708.800781 C 572.652344 692.199219 607.902344 668.433594 638.171875 638.171875 C 668.433594 607.902344 692.199219 572.65625 708.800781 533.402344 C 721.148438 504.210938 729.125 473.726562 732.636719 442.386719 L 685.277344 451.332031 " fill-opacity="1" fill-rule="nonzero"/><path fill="#ffffff" d="M 358.835938 685.277344 C 239.789062 665.699219 145.449219 571.816406 125.171875 453.003906 L 77.757812 444.359375 C 81.382812 475.007812 89.277344 504.824219 101.367188 533.402344 C 117.96875 572.65625 141.730469 607.902344 171.996094 638.171875 C 202.261719 668.433594 237.507812 692.199219 276.769531 708.800781 C 305.957031 721.148438 336.441406 729.125 367.78125 732.636719 L 358.835938 685.277344 " fill-opacity="1" fill-rule="nonzero"/><path fill="#ffffff" d="M 408.09375 810.117188 L 402.074219 810.117188 L 402.074219 0.0507812 L 408.09375 0.0507812 L 408.09375 810.117188 " fill-opacity="1" fill-rule="nonzero"/><path fill="#ffffff" d="M 0.0507812 408.09375 L 0.0507812 402.074219 L 810.117188 402.074219 L 810.117188 408.09375 L 0.0507812 408.09375 " fill-opacity="1" fill-rule="nonzero"/><path fill="#ffffff" d="M 385.640625 405.082031 C 385.640625 394.347656 394.347656 385.640625 405.082031 385.640625 C 415.820312 385.640625 424.523438 394.347656 424.523438 405.082031 C 424.523438 415.820312 415.820312 424.523438 405.082031 424.523438 C 394.347656 424.523438 385.640625 415.820312 385.640625 405.082031 " fill-opacity="1" fill-rule="nonzero"/></svg>