<svg xmlns="http://www.w3.org/2000/svg" xmlns:xlink="http://www.w3.org/1999/xlink" width="1080" zoomAndPan="magnify" viewBox="0 0 810 809.999993" height="1080" preserveAspectRatio="xMidYMid meet" version="1.0"><path fill="#000000" d="M 386.964844 18.035156 C 386.964844 13.25 388.867188 8.65625 392.242188 5.28125 C 395.621094 1.902344 400.210938 0 405 0 C 409.789062 0 414.378906 1.902344 417.757812 5.28125 C 421.132812 8.65625 423.035156 13.25 423.035156 18.035156 L 423.035156 96.921875 C 423.035156 101.691406 421.132812 106.285156 417.757812 109.660156 C 414.378906 113.054688 409.789062 114.957031 405 114.957031 C 400.210938 114.957031 395.621094 113.054688 392.242188 109.660156 C 388.867188 106.285156 386.964844 101.691406 386.964844 96.921875 Z M 386.964844 18.035156 " fill-opacity="1" fill-rule="nonzero"/><path fill="#000000" d="M 386.964844 713.078125 C 386.964844 708.308594 388.867188 703.714844 392.242188 700.339844 C 395.621094 696.945312 400.210938 695.042969 405 695.042969 C 409.789062 695.042969 414.378906 696.945312 417.757812 700.339844 C 421.132812 703.714844 423.035156 708.308594 423.035156 713.078125 L 423.035156 791.964844 C 423.035156 796.75 421.132812 801.34375 417.757812 804.71875 C 414.378906 808.097656 409.789062 810 405 810 C 400.210938 810 395.621094 808.097656 392.242188 804.71875 C 388.867188 801.34375 386.964844 796.75 386.964844 791.964844 Z M 386.964844 713.078125 " fill-opacity="1" fill-rule="nonzero"/><path fill="#000000" d="M 18.035156 423.035156 C 13.25 423.035156 8.65625 421.132812 5.28125 417.757812 C 1.902344 414.378906 0 409.789062 0 405 C 0 400.210938 1.902344 395.621094 5.28125 392.242188 C 8.65625 388.867188 13.25 386.964844 18.035156 386.964844 L 96.921875 386.964844 C 101.691406 386.964844 106.285156 388.867188 109.660156 392.242188 C 113.054688 395.621094 114.957031 400.210938 114.957031 405 C 114.957031 409.789062 113.054688 414.378906 109.660156 417.757812 C 106.285156 421.132812 101.691406 423.035156 96.921875 423.035156 Z M 18.035156 423.035156 " fill-opacity="1" fill-rule="nonzero"/><path fill="#000000" d="M 713.078125 423.035156 C 708.308594 423.035156 703.714844 421.132812 700.339844 417.757812 C 696.945312 414.378906 695.042969 409.789062 695.042969 405 C 695.042969 400.210938 696.945312 395.621094 700.339844 392.242188 C 703.714844 388.867188 708.308594 386.964844 713.078125 386.964844 L 791.964844 386.964844 C 796.75 386.964844 801.34375 388.867188 804.71875 392.242188 C 808.097656 395.621094 810 400.210938 810 405 C 810 409.789062 808.097656 414.378906 804.71875 417.757812 C 801.34375 421.132812 796.75 423.035156 791.964844 423.035156 Z M 713.078125 423.035156 " fill-opacity="1" fill-rule="nonzero"/><path fill="#000000" d="M 118.613281 144.128906 C 115.238281 140.75 113.335938 136.160156 113.335938 131.371094 C 113.335938 126.597656 115.238281 122.007812 118.613281 118.613281 C 122.007812 115.238281 126.597656 113.335938 131.371094 113.335938 C 136.160156 113.335938 140.75 115.238281 144.128906 118.613281 L 199.910156 174.394531 C 203.285156 177.773438 205.1875 182.363281 205.1875 187.152344 C 205.1875 191.941406 203.285156 196.53125 199.910156 199.910156 C 196.53125 203.285156 191.941406 205.1875 187.152344 205.1875 C 182.363281 205.1875 177.773438 203.285156 174.394531 199.910156 Z M 118.613281 144.128906 " fill-opacity="1" fill-rule="nonzero"/><path fill="#000000" d="M 610.089844 635.605469 C 606.714844 632.226562 604.8125 627.636719 604.8125 622.847656 C 604.8125 618.058594 606.714844 613.46875 610.089844 610.089844 C 613.46875 606.714844 618.058594 604.8125 622.847656 604.8125 C 627.636719 604.8125 632.226562 606.714844 635.605469 610.089844 L 691.386719 665.871094 C 694.761719 669.25 696.664062 673.839844 696.664062 678.628906 C 696.664062 683.402344 694.761719 687.992188 691.386719 691.386719 C 687.992188 694.761719 683.402344 696.664062 678.628906 696.664062 C 673.839844 696.664062 669.25 694.761719 665.871094 691.386719 Z M 610.089844 635.605469 " fill-opacity="1" fill-rule="nonzero"/><path fill="#000000" d="M 144.128906 691.386719 C 140.75 694.761719 136.160156 696.664062 131.371094 696.664062 C 126.597656 696.664062 122.007812 694.761719 118.613281 691.386719 C 115.238281 687.992188 113.335938 683.402344 113.335938 678.628906 C 113.335938 673.839844 115.238281 669.25 118.613281 665.871094 L 174.394531 610.089844 C 177.773438 606.714844 182.363281 604.8125 187.152344 604.8125 C 191.941406 604.8125 196.53125 606.714844 199.910156 610.089844 C 203.285156 613.46875 205.1875 618.058594 205.1875 622.847656 C 205.1875 627.636719 203.285156 632.226562 199.910156 635.605469 Z M 144.128906 691.386719 " fill-opacity="1" fill-rule="nonzero"/><path fill="#000000" d="M 691.386719 144.128906 L 635.605469 199.910156 C 632.226562 203.285156 627.636719 205.1875 622.847656 205.1875 C 618.058594 205.1875 613.46875 203.285156 610.089844 199.910156 C 606.714844 196.53125 604.8125 191.941406 604.8125 187.152344 C 604.8125 182.363281 606.714844 177.773438 610.089844 174.394531 L 665.871094 118.613281 C 669.25 115.238281 673.839844 113.335938 678.628906 113.335938 C 683.402344 113.335938 687.992188 115.238281 691.386719 118.613281 C 694.761719 122.007812 696.664062 126.597656 696.664062 131.371094 C 696.664062 136.160156 694.761719 140.75 691.386719 144.128906 Z M 691.386719 144.128906 " fill-opacity="1" fill-rule="nonzero"/><path fill="#000000" d="M 167.246094 405 C 167.230469 373.222656 173.574219 341.757812 185.9375 312.488281 C 197.910156 284.253906 215.222656 258.59375 236.917969 236.917969 C 258.59375 215.222656 284.253906 197.910156 312.488281 185.957031 C 341.757812 173.59375 373.222656 167.230469 405 167.246094 C 436.777344 167.230469 468.242188 173.59375 497.511719 185.957031 C 525.746094 197.910156 551.40625 215.222656 573.082031 236.917969 C 594.777344 258.59375 612.089844 284.253906 624.042969 312.488281 C 636.40625 341.757812 642.769531 373.222656 642.753906 405 C 642.769531 436.777344 636.40625 468.242188 624.042969 497.511719 C 612.089844 525.746094 594.777344 551.40625 573.082031 573.082031 C 551.40625 594.777344 525.746094 612.089844 497.511719 624.042969 C 468.242188 636.40625 436.777344 642.769531 405 642.753906 C 373.222656 642.769531 341.757812 636.40625 312.488281 624.042969 C 284.253906 612.089844 258.59375 594.777344 236.917969 573.082031 C 215.222656 551.40625 197.910156 525.746094 185.957031 497.511719 C 173.59375 468.242188 167.230469 436.777344 167.246094 405 Z M 203.320312 405 C 203.304688 378.042969 208.679688 351.367188 219.175781 326.523438 C 229.324219 302.585938 244.015625 280.8125 262.414062 262.414062 C 280.8125 244.015625 302.585938 229.324219 326.542969 219.175781 C 351.367188 208.679688 378.042969 203.304688 405 203.320312 C 431.957031 203.304688 458.632812 208.679688 483.457031 219.175781 C 507.414062 229.324219 529.1875 244.015625 547.585938 262.414062 C 565.984375 280.8125 580.675781 302.585938 590.824219 326.542969 C 601.320312 351.367188 606.695312 378.042969 606.679688 405 C 606.695312 431.957031 601.320312 458.632812 590.824219 483.457031 C 580.675781 507.414062 565.984375 529.1875 547.585938 547.585938 C 529.1875 565.984375 507.414062 580.675781 483.457031 590.824219 C 458.632812 601.320312 431.957031 606.695312 405 606.679688 C 378.042969 606.695312 351.367188 601.320312 326.542969 590.824219 C 302.585938 580.675781 280.8125 565.984375 262.414062 547.585938 C 244.015625 529.1875 229.324219 507.414062 219.175781 483.457031 C 208.679688 458.632812 203.304688 431.957031 203.320312 405 Z M 203.320312 405 " fill-opacity="1" fill-rule="evenodd"/><path fill="#000000" d="M 386.964844 18.035156 C 386.964844 13.25 388.867188 8.65625 392.242188 5.28125 C 395.621094 1.902344 400.210938 0 405 0 C 409.789062 0 414.378906 1.902344 417.757812 5.28125 C 421.132812 8.65625 423.035156 13.25 423.035156 18.035156 L 423.035156 96.921875 C 423.035156 101.691406 421.132812 106.285156 417.757812 109.660156 C 414.378906 113.054688 409.789062 114.957031 405 114.957031 C 400.210938 114.957031 395.621094 113.054688 392.242188 109.660156 C 388.867188 106.285156 386.964844 101.691406 386.964844 96.921875 Z M 386.964844 18.035156 " fill-opacity="1" fill-rule="nonzero"/><path fill="#000000" d="M 386.964844 713.078125 C 386.964844 708.308594 388.867188 703.714844 392.242188 700.339844 C 395.621094 696.945312 400.210938 695.042969 405 695.042969 C 409.789062 695.042969 414.378906 696.945312 417.757812 700.339844 C 421.132812 703.714844 423.035156 708.308594 423.035156 713.078125 L 423.035156 791.964844 C 423.035156 796.75 421.132812 801.34375 417.757812 804.71875 C 414.378906 808.097656 409.789062 810 405 810 C 400.210938 810 395.621094 808.097656 392.242188 804.71875 C 388.867188 801.34375 386.964844 796.75 386.964844 791.964844 Z M 386.964844 713.078125 " fill-opacity="1" fill-rule="nonzero"/><path fill="#000000" d="M 18.035156 423.035156 C 13.25 423.035156 8.65625 421.132812 5.28125 417.757812 C 1.902344 414.378906 0 409.789062 0 405 C 0 400.210938 1.902344 395.621094 5.28125 392.242188 C 8.65625 388.867188 13.25 386.964844 18.035156 386.964844 L 96.921875 386.964844 C 101.691406 386.964844 106.285156 388.867188 109.660156 392.242188 C 113.054688 395.621094 114.957031 400.210938 114.957031 405 C 114.957031 409.789062 113.054688 414.378906 109.660156 417.757812 C 106.285156 421.132812 101.691406 423.035156 96.921875 423.035156 Z M 18.035156 423.035156 " fill-opacity="1" fill-rule="nonzero"/><path fill="#000000" d="M 713.078125 423.035156 C 708.308594 423.035156 703.714844 421.132812 700.339844 417.757812 C 696.945312 414.378906 695.042969 409.789062 695.042969 405 C 695.042969 400.210938 696.945312 395.621094 700.339844 392.242188 C 703.714844 388.867188 708.308594 386.964844 713.078125 386.964844 L 791.964844 386.964844 C 796.75 386.964844 801.34375 388.867188 804.71875 392.242188 C 808.097656 395.621094 810 400.210938 810 405 C 810 409.789062 808.097656 414.378906 804.71875 417.757812 C 801.34375 421.132812 796.75 423.035156 791.964844 423.035156 Z M 713.078125 423.035156 " fill-opacity="1" fill-rule="nonzero"/><path fill="#000000" d="M 118.613281 144.128906 C 115.238281 140.75 113.335938 136.160156 113.335938 131.371094 C 113.335938 126.597656 115.238281 122.007812 118.613281 118.613281 C 122.007812 115.238281 126.597656 113.335938 131.371094 113.335938 C 136.160156 113.335938 140.75 115.238281 144.128906 118.613281 L 199.910156 174.394531 C 203.285156 177.773438 205.1875 182.363281 205.1875 187.152344 C 205.1875 191.941406 203.285156 196.53125 199.910156 199.910156 C 196.53125 203.285156 191.941406 205.1875 187.152344 205.1875 C 182.363281 205.1875 177.773438 203.285156 174.394531 199.910156 Z M 118.613281 144.128906 " fill-opacity="1" fill-rule="nonzero"/><path fill="#000000" d="M 610.089844 635.605469 C 606.714844 632.226562 604.8125 627.636719 604.8125 622.847656 C 604.8125 618.058594 606.714844 613.46875 610.089844 610.089844 C 613.46875 606.714844 618.058594 604.8125 622.847656 604.8125 C 627.636719 604.8125 632.226562 606.714844 635.605469 610.089844 L 691.386719 665.871094 C 694.761719 669.25 696.664062 673.839844 696.664062 678.628906 C 696.664062 683.402344 694.761719 687.992188 691.386719 691.386719 C 687.992188 694.761719 683.402344 696.664062 678.628906 696.664062 C 673.839844 696.664062 669.25 694.761719 665.871094 691.386719 Z M 610.089844 635.605469 " fill-opacity="1" fill-rule="nonzero"/><path fill="#000000" d="M 144.128906 691.386719 C 140.75 694.761719 136.160156 696.664062 131.371094 696.664062 C 126.597656 696.664062 122.007812 694.761719 118.613281 691.386719 C 115.238281 687.992188 113.335938 683.402344 113.335938 678.628906 C 113.335938 673.839844 115.238281 669.25 118.613281 665.871094 L 174.394531 610.089844 C 177.773438 606.714844 182.363281 604.8125 187.152344 604.8125 C 191.941406 604.8125 196.53125 606.714844 199.910156 610.089844 C 203.285156 613.46875 205.1875 618.058594 205.1875 622.847656 C 205.1875 627.636719 203.285156 632.226562 199.910156 635.605469 Z M 144.128906 691.386719 " fill-opacity="1" fill-rule="nonzero"/><path fill="#000000" d="M 691.386719 144.128906 L 635.605469 199.910156 C 632.226562 203.285156 627.636719 205.1875 622.847656 205.1875 C 618.058594 205.1875 613.46875 203.285156 610.089844 199.910156 C 606.714844 196.53125 604.8125 191.941406 604.8125 187.152344 C 604.8125 182.363281 606.714844 177.773438 610.089844 174.394531 L 665.871094 118.613281 C 669.25 115.238281 673.839844 113.335938 678.628906 113.335938 C 683.402344 113.335938 687.992188 115.238281 691.386719 118.613281 C 694.761719 122.007812 696.664062 126.597656 696.664062 131.371094 C 696.664062 136.160156 694.761719 140.75 691.386719 144.128906 Z M 691.386719 144.128906 " fill-opacity="1" fill-rule="nonzero"/><path fill="#000000" d="M 167.246094 405 C 167.230469 373.222656 173.574219 341.757812 185.9375 312.488281 C 197.910156 284.253906 215.222656 258.59375 236.917969 236.917969 C 258.59375 215.222656 284.253906 197.910156 312.488281 185.957031 C 341.757812 173.59375 373.222656 167.230469 405 167.246094 C 436.777344 167.230469 468.242188 173.59375 497.511719 185.957031 C 525.746094 197.910156 551.40625 215.222656 573.082031 236.917969 C 594.777344 258.59375 612.089844 284.253906 624.042969 312.488281 C 636.40625 341.757812 642.769531 373.222656 642.753906 405 C 642.769531 436.777344 636.40625 468.242188 624.042969 497.511719 C 612.089844 525.746094 594.777344 551.40625 573.082031 573.082031 C 551.40625 594.777344 525.746094 612.089844 497.511719 624.042969 C 468.242188 636.40625 436.777344 642.769531 405 642.753906 C 373.222656 642.769531 341.757812 636.40625 312.488281 624.042969 C 284.253906 612.089844 258.59375 594.777344 236.917969 573.082031 C 215.222656 551.40625 197.910156 525.746094 185.957031 497.511719 C 173.59375 468.242188 167.230469 436.777344 167.246094 405 Z M 203.320312 405 C 203.304688 378.042969 208.679688 351.367188 219.175781 326.523438 C 229.324219 302.585938 244.015625 280.8125 262.414062 262.414062 C 280.8125 244.015625 302.585938 229.324219 326.542969 219.175781 C 351.367188 208.679688 378.042969 203.304688 405 203.320312 C 431.957031 203.304688 458.632812 208.679688 483.457031 219.175781 C 507.414062 229.324219 529.1875 244.015625 547.585938 262.414062 C 565.984375 280.8125 580.675781 302.585938 590.824219 326.542969 C 601.320312 351.367188 606.695312 378.042969 606.679688 405 C 606.695312 431.957031 601.320312 458.632812 590.824219 483.457031 C 580.675781 507.414062 565.984375 529.1875 547.585938 547.585938 C 529.1875 565.984375 507.414062 580.675781 483.457031 590.824219 C 458.632812 601.320312 431.957031 606.695312 405 606.679688 C 378.042969 606.695312 351.367188 601.320312 326.542969 590.824219 C 302.585938 580.675781 280.8125 565.984375 262.414062 547.585938 C 244.015625 529.1875 229.324219 507.414062 219.175781 483.457031 C 208.679688 458.632812 203.304688 431.957031 203.320312 405 Z M 203.320312 405 " fill-opacity="1" fill-rule="evenodd"/></svg>